HIERARCHY
ROOT RootJoint
{
    OFFSET   0.000000   0.000000   0.000000
    CHANNELS 6 Xposition Yposition Zposition Xrotation Yrotation Zrotation
    JOINT pelvis_lowerback
    {
        OFFSET   0.000000   0.093605   0.000000
        CHANNELS 3 Xrotation Yrotation Zrotation
        JOINT lowerback_torso
        {
            OFFSET   0.000000   0.100000   0.000000
            CHANNELS 3 Xrotation Yrotation Zrotation
            JOINT torso_head
            {
                OFFSET   0.000000   0.282350   0.000000
                CHANNELS 3 Xrotation Yrotation Zrotation
                End Site
                {
                    OFFSET   0.000000   0.192650   0.000000
                }
            }
            JOINT rTorso_Clavicle
            {
                OFFSET  -0.001000   0.157500   0.000000
                CHANNELS 3 Xrotation Yrotation Zrotation
                JOINT rShoulder
                {
                    OFFSET  -0.117647   0.000000   0.000000
                    CHANNELS 3 Xrotation Yrotation Zrotation
                    JOINT rElbow
                    {
                        OFFSET  -0.245000   0.000000   0.000000
                        CHANNELS 3 Xrotation Yrotation Zrotation
                        JOINT rWrist
                        {
                            OFFSET  -0.240000   0.000000   0.000000
                            CHANNELS 3 Xrotation Yrotation Zrotation
                            End Site
                            {
                                OFFSET  -0.116353  -0.002500   0.000000
                            }
                        }
                    }
                }
            }
            JOINT lTorso_Clavicle
            {
                OFFSET   0.001000   0.157500   0.000000
                CHANNELS 3 Xrotation Yrotation Zrotation
                JOINT lShoulder
                {
                    OFFSET   0.117647   0.000000   0.000000
                    CHANNELS 3 Xrotation Yrotation Zrotation
                    JOINT lElbow
                    {
                        OFFSET   0.245000   0.000000   0.000000
                        CHANNELS 3 Xrotation Yrotation Zrotation
                        JOINT lWrist
                        {
                            OFFSET   0.240000   0.000000   0.000000
                            CHANNELS 3 Xrotation Yrotation Zrotation
                            End Site
                            {
                                OFFSET   0.116353  -0.002500   0.000000
                            }
                        }
                    }
                }
            }
        }
    }
    JOINT rHip
    {
        OFFSET  -0.100000  -0.051395   0.000000
        CHANNELS 3 Xrotation Yrotation Zrotation
        JOINT rKnee
        {
            OFFSET   0.000000  -0.410000   0.000000
            CHANNELS 3 Xrotation Yrotation Zrotation
            JOINT rAnkle
            {
                OFFSET   0.000000  -0.390000   0.000000
                CHANNELS 3 Xrotation Yrotation Zrotation
                JOINT rToeJoint
                {
                    OFFSET   0.000000  -0.050000   0.130000
                    CHANNELS 3 Xrotation Yrotation Zrotation
                    End Site
                    {
                        OFFSET  -0.010000   0.002000   0.060000
                    }
                }
            }
        }
    }
    JOINT lHip
    {
        OFFSET   0.100000  -0.051395   0.000000
        CHANNELS 3 Xrotation Yrotation Zrotation
        JOINT lKnee
        {
            OFFSET   0.000000  -0.410000   0.000000
            CHANNELS 3 Xrotation Yrotation Zrotation
            JOINT lAnkle
            {
                OFFSET   0.000000  -0.390000   0.000000
                CHANNELS 3 Xrotation Yrotation Zrotation
                JOINT lToeJoint
                {
                    OFFSET   0.000000  -0.050000   0.130000
                    CHANNELS 3 Xrotation Yrotation Zrotation
                    End Site
                    {
                        OFFSET   0.010000   0.002000   0.060000
                    }
                }
            }
        }
    }
}
MOTION
Frames: 14
Frame Time:   0.008333
 -1.884409   0.888193   4.299506  -2.401026  -1.974218  -0.672181   7.889993  -0.616106   1.780412  -2.424960  -1.263426   0.874146  -3.361260  -1.524484   2.661027  -4.190524  14.652709 -10.345838 -16.374337  36.085928  21.411130  -0.004325  84.162429   0.003561  -9.001861   8.710361   3.503449  -4.527601  -6.761159   8.042470 -28.057561   3.535470 -17.943197  -0.000191 -67.628614   0.000041 -13.870168 -10.425964  10.916828 -27.917609  -1.043876  -7.730165  51.170655   0.021077  -0.005549 -10.865432  -6.781104   2.198067   1.319099   0.000095   0.000094  -0.014702  -2.295570   5.065190  26.133806   0.000792   0.004009 -23.922545  -2.736128  -1.611731  -0.143973  -0.000063   0.000011
 -1.884804   0.889843   4.294802  -2.356788  -1.919869  -0.639674   7.800044  -0.639191   1.757396  -2.429556  -1.283287   0.958612  -3.463509  -1.562256   2.686783  -4.137449  14.736896 -10.336782 -16.385044  36.189049  21.391410  -0.002512  83.874536   0.001776  -9.005305   8.683208   3.497190  -4.488048  -6.621229   8.038921 -28.017819   3.604634 -17.884845  -0.000506 -67.824021   0.000034 -13.888628 -10.293194  10.921046 -27.131890  -0.822320  -8.062461  52.202902   0.021007  -0.004769 -10.912146  -6.742664   1.885036   1.296881  -0.000115   0.000068  -0.143684  -2.490570   5.031116  25.578624   0.000881   0.003789 -23.298967  -2.602086  -1.473907  -0.110251  -0.000093   0.000010
 -1.885282   0.891361   4.290222  -2.289696  -1.858240  -0.595887   7.684626  -0.654675   1.728183  -2.454248  -1.300878   1.037244  -3.560357  -1.599539   2.707869  -4.092042  14.818416 -10.335277 -16.397228  36.283880  21.368771  -0.000788  83.598649   0.000153  -9.006529   8.613472   3.480283  -4.454449  -6.489668   8.052187 -27.984506   3.660866 -17.822109  -0.000923 -68.017905  -0.000104 -13.896076 -10.219132  10.902158 -26.322281  -0.595390  -8.425202  53.139344   0.020781  -0.004180 -10.953347  -6.706176   1.591958   1.297549  -0.000086   0.000054  -0.301456  -2.679940   4.995551  25.050905   0.000951   0.003513 -22.699445  -2.481846  -1.343620  -0.075968  -0.000118   0.000008
 -1.885861   0.892758   4.285736  -2.205103  -1.817001  -0.551885   7.556697  -0.655805   1.699828  -2.496601  -1.306393   1.112415  -3.652754  -1.634040   2.726859  -4.054006  14.899360 -10.337482 -16.412545  36.374813  21.345850   0.000714  83.340654  -0.001223  -9.006977   8.538234   3.453597  -4.427506  -6.363345   8.075484 -27.957557   3.711415 -17.755403  -0.001343 -68.201338  -0.000303 -13.898316 -10.172395  10.892382 -25.518454  -0.381995  -8.795835  54.014300   0.020266  -0.003932 -10.991284  -6.671941   1.318012   1.301433  -0.000037   0.000044  -0.479936  -2.851599   4.967962  24.551822   0.001029   0.003264 -22.126159  -2.359525  -1.220335  -0.041253  -0.000139   0.000007
 -1.886553   0.894049   4.281325  -2.108455  -1.802305  -0.511193   7.423457  -0.644244   1.673482  -2.550374  -1.299707   1.185224  -3.740472  -1.666003   2.744685  -4.021950  14.980310 -10.341818 -16.430765  36.462961  21.323908   0.001896  83.100492  -0.002280  -9.007472   8.469322   3.419045  -4.406161  -6.240697   8.105188 -27.935705   3.758923 -17.686187  -0.001700 -68.373270  -0.000504 -13.898155 -10.138516  10.897996 -24.731848  -0.186806  -9.165209  54.836907   0.019475  -0.003949 -11.026227  -6.639775   1.062152   1.306588   0.000011   0.000034  -0.672567  -3.003749   4.951885  24.079473   0.001117   0.003055 -21.577952  -2.230674  -1.102885  -0.005822  -0.000158   0.000006
 -1.887365   0.895242   4.276973  -2.004096  -1.813883  -0.474605   7.289980  -0.622898   1.648969  -2.610522  -1.283084   1.255557  -3.823313  -1.695696   2.761619  -3.994541  15.060723 -10.347412 -16.451024  36.548302  21.303385   0.002733  82.877135  -0.003005  -9.008228   8.408861   3.378940  -4.389292  -6.121752   8.138880 -27.917839   3.804217 -17.615991  -0.001963 -68.533906  -0.000671 -13.896766 -10.111561  10.917485 -23.969266  -0.010059  -9.528952  55.610882   0.018463  -0.004124 -11.058459  -6.609519   0.823258   1.312218   0.000051   0.000025  -0.874919  -3.137171   4.948590  23.632012   0.001212   0.002881 -21.053082  -2.094808  -0.990437   0.030600  -0.000176   0.000005
 -1.888301   0.896345   4.272667  -1.895679  -1.849517  -0.441932   7.160072  -0.594627   1.625807  -2.673144  -1.259191   1.322922  -3.901212  -1.723325   2.777705  -3.970702  15.139818 -10.353716 -16.472444  36.630531  21.284393   0.003248  82.669366  -0.003428  -9.009251   8.356137   3.335396  -4.375920  -6.007090   8.174741 -27.903070   3.847467 -17.546186  -0.002121 -68.683806  -0.000788 -13.894713 -10.088787  10.947654 -23.235399   0.149373  -9.884529  56.338652   0.017290  -0.004372 -11.088249  -6.581041   0.600235   1.317817   0.000081   0.000017  -1.083552  -3.253385   4.958409  23.207918   0.001310   0.002731 -20.549913  -1.952697  -0.882415   0.068225  -0.000193   0.000005
 -1.889277   0.897343   4.268608  -1.785730  -1.858435  -0.404373   6.942935  -0.579939   1.589006  -2.681959  -1.244593   1.404352  -3.962793  -1.749492   2.774758  -3.909586  15.229044 -10.360684 -16.547656  36.676889  21.301835   0.005375  82.328389  -0.005506  -8.991054   8.384685   3.335189  -4.331938  -5.887712   8.219592 -27.874848   3.906886 -17.514769  -0.002448 -68.905366  -0.000973 -13.874748 -10.034913  10.947928 -22.298520   0.342040 -10.273535  56.494681   0.014497  -0.003648 -10.970812  -6.443001   0.404924   1.322201   0.000097   0.000018  -1.289605  -3.373048   4.975267  22.802144   0.001380   0.002506 -20.061680  -1.834465  -0.837128   0.093531  -0.000178   0.000004
 -1.890333   0.898187   4.264630  -1.663637  -1.896512  -0.346568   6.713950  -0.551688   1.531593  -2.707386  -1.219304   1.473325  -4.023882  -1.773756   2.770307  -3.850599  15.313852 -10.364738 -16.616999  36.713598  21.318979   0.006933  81.997007  -0.006981  -8.969892   8.346798   3.310923  -4.290189  -5.767884   8.265080 -27.846724   3.963924 -17.483312  -0.002757 -69.116467  -0.001208 -13.850997 -10.006146  10.927617 -21.364477   0.539416 -10.696517  56.527255   0.011740  -0.002938 -10.862544  -6.313334   0.221908   1.341345   0.000213   0.000025  -1.519737  -3.470111   4.976993  22.441060   0.001420   0.002305 -19.605976  -1.710392  -0.802588   0.117542  -0.000164   0.000004
 -1.891512   0.898912   4.260708  -1.541217  -1.964510  -0.282364   6.489706  -0.514027   1.465856  -2.742194  -1.184829   1.531440  -4.083468  -1.796167   2.765506  -3.795480  15.394917 -10.367278 -16.682491  36.747659  21.335773   0.007833  81.685737  -0.007785  -8.948375   8.290420   3.278200  -4.252890  -5.648466   8.308351 -27.821049   4.020995 -17.450423  -0.002985 -69.313129  -0.001432 -13.826935  -9.984409  10.914039 -20.461134   0.724578 -11.129512  56.531527   0.009414  -0.002337 -10.761757  -6.192990   0.050517   1.361154   0.000303   0.000024  -1.758229  -3.546853   4.980271  22.117755   0.001448   0.002132 -19.180121  -1.577366  -0.774351   0.141999  -0.000153   0.000003
 -1.892833   0.899547   4.256829  -1.422937  -2.057078  -0.218552   6.274812  -0.471098   1.396909  -2.780735  -1.144538   1.581290  -4.140345  -1.817004   2.760764  -3.743959  15.472496 -10.368821 -16.744482  36.780403  21.352370   0.008191  81.395126  -0.008050  -8.927546   8.233111   3.243410  -4.219332  -5.531178   8.348199 -27.797430   4.077810 -17.417550  -0.003107 -69.495859  -0.001606 -13.803774  -9.963415  10.910146 -19.596465   0.892773 -11.558784  56.531374   0.007535  -0.001854 -10.667356  -6.081204  -0.109755   1.380467   0.000365   0.000018  -1.996985  -3.607107   4.993974  21.823085   0.001473   0.001979 -18.779148  -1.436870  -0.749199   0.168099  -0.000148   0.000003
 -1.894308   0.900109   4.252983  -1.310694  -2.168921  -0.157528   6.071449  -0.425963   1.326685  -2.819979  -1.101401   1.624154  -4.194103  -1.836432   2.756183  -3.695761  15.546441 -10.369808 -16.803017  36.811936  21.368615   0.008143  81.124160  -0.007919  -8.907680   8.179241   3.208782  -4.188763  -5.417721   8.384376 -27.775443   4.133524 -17.385774  -0.003125 -69.665650  -0.001718 -13.781873  -9.941407  10.913216 -18.774230   1.043664 -11.977336  56.532972   0.006037  -0.001474 -10.578830  -5.977266  -0.259526   1.398728   0.000399   0.000009  -2.232134  -3.654118   5.021627  21.550482   0.001496   0.001842 -18.398880  -1.290988  -0.725123   0.196533  -0.000148   0.000003
 -1.895941   0.900560   4.249177  -1.207148  -2.296815  -0.107686   5.879522  -0.380264   1.261914  -2.858181  -1.057388   1.663593  -4.243959  -1.854506   2.751751  -3.651731  15.616602 -10.372760 -16.858456  36.842011  21.383124   0.007857  80.871391  -0.007550  -8.888927   8.128928   3.174776  -4.160717  -5.309317   8.419392 -27.754977   4.186981 -17.354909  -0.003067 -69.823557  -0.001778 -13.761561  -9.917035  10.919734 -17.994997   1.176515 -12.375378  56.540009   0.004854  -0.001184 -10.495904  -5.880488  -0.399394   1.414851   0.000408  -0.000000  -2.460039  -3.686965   5.070954  21.307141   0.001501   0.001702 -17.975761  -1.140685  -0.680639  -0.187132   0.000382  -0.000018
 -1.897618   0.900987   4.245537  -1.091174  -2.411349  -0.061448   5.604618  -0.330525   1.206366  -2.832723  -1.004292   1.701146  -4.287992  -1.855219   2.744691  -3.584561  15.663740 -10.347092 -16.945696  36.824282  21.367261   0.008725  80.568580  -0.008309  -8.882300   8.148483   3.177882  -4.131545  -5.227360   8.428217 -27.729428   4.223439 -17.312610  -0.003011 -69.984642  -0.001822 -13.724158  -9.893691  10.897037 -17.016237   1.373325 -12.768015  55.868048   0.001194  -0.000134 -10.420766  -5.613828  -0.391392   1.411205   0.000310  -0.000007  -2.706964  -3.706167   5.139131  21.089478   0.001480   0.001507 -17.652152  -1.021713  -0.711303  -0.082276   0.000224  -0.000013
